<svg width="12" height="12" viewBox="0 0 12 12" fill="none" xmlns="http://www.w3.org/2000/svg">
<g clip-path="url(#clip0_188_8223)">
<path d="M0.50001 5.70001C0.500012 6.7289 0.80524 7.73466 1.37707 8.59001C1.94889 9.44536 2.76161 10.1119 3.71237 10.5051C4.66313 10.8984 5.70919 11.0008 6.71816 10.7994C7.72714 10.5979 8.65367 10.1016 9.3805 9.37341C10.1073 8.64518 10.6018 7.71769 10.8013 6.70834C11.0008 5.69898 10.8964 4.65312 10.5013 3.70312C10.1062 2.75312 9.43814 1.94168 8.58169 1.3715C7.72524 0.801323 6.7189 0.498031 5.69001 0.50001C5.00761 0.500008 4.3319 0.634583 3.70157 0.89603C3.07124 1.15748 2.49865 1.54066 2.01659 2.02366C1.53452 2.50666 1.15243 3.07998 0.892201 3.71081C0.631968 4.34165 0.498695 5.01761 0.50001 5.70001Z" stroke="#305DC6" stroke-linecap="round" stroke-linejoin="round"/>
<path d="M8.51014 5.83001L4.39014 3.45001V8.21001L8.51014 5.83001Z" stroke="#305DC6" stroke-linecap="round" stroke-linejoin="round"/>
</g>
<defs>
<clipPath id="clip0_188_8223">
<rect width="11.4" height="11.4" fill="white"/>
</clipPath>
</defs>
</svg>
