<svg width="12" height="12" viewBox="0 0 12 12" fill="none" xmlns="http://www.w3.org/2000/svg">
<path d="M1.46066 1.97036L1.90616 2.19735L1.46066 1.97036ZM1.97038 1.46049L2.19737 1.906L1.97038 1.46049ZM1.97038 10.5395L2.19737 10.094H2.19737L1.97038 10.5395ZM1.46066 10.0296L1.01515 10.2566L1.46066 10.0296ZM10.5398 10.0296L10.0943 9.80265L10.5398 10.0296ZM10.0297 10.5395L9.80271 10.094L10.0297 10.5395ZM10.5398 1.97036L10.0943 2.19735L10.5398 1.97036ZM10.0297 1.46049L10.2567 1.01499L10.0297 1.46049ZM6.00016 4.91667C5.72402 4.91667 5.50016 5.14052 5.50016 5.41667C5.50016 5.69281 5.72402 5.91667 6.00016 5.91667V4.91667ZM8.3335 5.91667C8.60964 5.91667 8.8335 5.69281 8.8335 5.41667C8.8335 5.14052 8.60964 4.91667 8.3335 4.91667V5.91667ZM6.00016 3.16667C5.72402 3.16667 5.50016 3.39052 5.50016 3.66667C5.50016 3.94281 5.72402 4.16667 6.00016 4.16667V3.16667ZM8.3335 4.16667C8.60964 4.16667 8.8335 3.94281 8.8335 3.66667C8.8335 3.39052 8.60964 3.16667 8.3335 3.16667V4.16667ZM3.16683 10.6667C3.16683 10.9428 3.39069 11.1667 3.66683 11.1667C3.94297 11.1667 4.16683 10.9428 4.16683 10.6667H3.16683ZM4.16683 1.33333C4.16683 1.05719 3.94297 0.833333 3.66683 0.833333C3.39069 0.833333 3.16683 1.05719 3.16683 1.33333L4.16683 1.33333ZM10.1668 3.20001V8.80001H11.1668V3.20001H10.1668ZM8.80028 10.1667H3.20028V11.1667H8.80028V10.1667ZM1.8335 8.80001V3.20001H0.833496V8.80001H1.8335ZM3.20028 1.83333H8.80028V0.833333H3.20028V1.83333ZM1.8335 3.20001C1.8335 2.86506 1.83388 2.64392 1.84773 2.47446C1.8611 2.31084 1.88448 2.2399 1.90616 2.19735L1.01515 1.74336C0.909672 1.95038 0.869473 2.16756 0.851052 2.39303C0.833107 2.61266 0.833496 2.88156 0.833496 3.20001H1.8335ZM3.20028 0.833333C2.88182 0.833333 2.61287 0.832944 2.39319 0.850887C2.1677 0.869304 1.95043 0.909494 1.74338 1.01499L2.19737 1.906C2.23989 1.88433 2.31087 1.86094 2.47459 1.84757C2.64412 1.83372 2.86533 1.83333 3.20028 1.83333V0.833333ZM1.90616 2.19735C1.97014 2.07178 2.07206 1.96985 2.19737 1.906L1.74338 1.01499C1.42965 1.17484 1.17487 1.42989 1.01515 1.74336L1.90616 2.19735ZM3.20028 10.1667C2.86534 10.1667 2.64413 10.1663 2.47461 10.1524C2.31088 10.139 2.2399 10.1157 2.19737 10.094L1.74338 10.985C1.95042 11.0905 2.16769 11.1307 2.39318 11.1491C2.61286 11.1671 2.88182 11.1667 3.20028 11.1667V10.1667ZM0.833496 8.80001C0.833496 9.11845 0.833107 9.38736 0.851052 9.60698C0.869473 9.83244 0.909673 10.0496 1.01515 10.2566L1.90616 9.80265C1.88448 9.7601 1.8611 9.68916 1.84773 9.52555C1.83388 9.35609 1.8335 9.13495 1.8335 8.80001H0.833496ZM2.19737 10.094C2.07204 10.0301 1.97013 9.9282 1.90616 9.80265L1.01515 10.2566C1.17489 10.5701 1.42967 10.8251 1.74338 10.985L2.19737 10.094ZM10.1668 8.80001C10.1668 9.135 10.1665 9.35614 10.1527 9.52563C10.1393 9.68927 10.1159 9.76016 10.0943 9.80265L10.9853 10.2566C11.0908 10.0496 11.131 9.83234 11.1493 9.6069C11.1672 9.38731 11.1668 9.1184 11.1668 8.80001H10.1668ZM8.80028 11.1667C9.11873 11.1667 9.38758 11.1671 9.60717 11.1491C9.83262 11.1307 10.0497 11.0905 10.2567 10.985L9.80271 10.094C9.76013 10.1157 9.68921 10.1391 9.52569 10.1524C9.3563 10.1663 9.13522 10.1667 8.80028 10.1667V11.1667ZM10.0943 9.80265C10.0305 9.92787 9.92838 10.03 9.80271 10.094L10.2567 10.985C10.5701 10.8253 10.8254 10.5705 10.9853 10.2566L10.0943 9.80265ZM11.1668 3.20001C11.1668 2.88161 11.1672 2.6127 11.1493 2.39311C11.131 2.16767 11.0908 1.95043 10.9853 1.74336L10.0943 2.19735C10.1159 2.23984 10.1393 2.31073 10.1527 2.47438C10.1665 2.64387 10.1668 2.86501 10.1668 3.20001H11.1668ZM8.80028 1.83333C9.13523 1.83333 9.3563 1.83372 9.5257 1.84757C9.68923 1.86093 9.76013 1.8843 9.80271 1.906L10.2567 1.01499C10.0497 0.909523 9.8326 0.869314 9.60715 0.850889C9.38758 0.832944 9.11872 0.833333 8.80028 0.833333V1.83333ZM10.9853 1.74336C10.8254 1.42955 10.5701 1.17467 10.2567 1.01499L9.80271 1.906C9.92836 1.97002 10.0305 2.07212 10.0943 2.19735L10.9853 1.74336ZM6.00016 5.91667H8.3335V4.91667H6.00016V5.91667ZM6.00016 4.16667H8.3335V3.16667H6.00016V4.16667ZM4.16683 10.6667L4.16683 1.33333L3.16683 1.33333L3.16683 10.6667H4.16683Z" fill="#1D4ED8"/>
</svg>
