<?xml version="1.0" encoding="utf-8"?>
<!-- Generator: Adobe Illustrator 26.0.1, SVG Export Plug-In . SVG Version: 6.00 Build 0)  -->
<svg version="1.1" id="Layer_1" xmlns="http://www.w3.org/2000/svg" xmlns:xlink="http://www.w3.org/1999/xlink" x="0px" y="0px"
	 viewBox="0 0 22 22" style="enable-background:new 0 0 22 22;" xml:space="preserve">
<style type="text/css">
	.st0{fill:none;stroke:#0B0B0B;stroke-width:1.2;stroke-linecap:round;stroke-linejoin:round;}
</style>
<path class="st0" d="M19.3,7.9L19,7.7c-0.1,0-0.1,0-0.1-0.1c-0.3-0.2-0.5-0.4-0.7-0.7c0,0,0-0.1-0.1-0.1l0,0c0-0.1,0-0.1-0.1-0.1
	c-0.2-0.3-0.2-0.6-0.2-0.9c0,0,0-0.1,0-0.1l0,0l0-0.4c0-0.7,0-1-0.1-1.3c-0.1-0.3-0.2-0.5-0.4-0.7c-0.2-0.2-0.5-0.4-1.1-0.8l0,0
	l-0.5-0.3c-0.6-0.3-0.9-0.5-1.2-0.6c-0.3-0.1-0.6-0.1-0.8,0c-0.3,0.1-0.6,0.2-1.2,0.6l0,0l-0.4,0.2c-0.1,0-0.1,0.1-0.1,0.1
	c-0.3,0.2-0.6,0.2-0.9,0.3c0,0-0.1,0-0.1,0h0c-0.1,0-0.1,0-0.1,0c-0.3,0-0.6-0.1-0.9-0.3c0,0-0.1,0-0.1-0.1l0,0L9.5,2.2l0,0
	C8.9,1.9,8.6,1.7,8.3,1.6C8,1.6,7.7,1.6,7.4,1.6C7.1,1.7,6.8,1.9,6.2,2.2L5.8,2.5C5.2,2.8,4.9,3,4.7,3.2C4.5,3.4,4.3,3.7,4.2,4
	C4.1,4.3,4.1,4.6,4.2,5.3l0,0.4c0,0.1,0,0.1,0,0.1c0,0.3-0.1,0.6-0.2,0.9c0,0,0,0.1-0.1,0.1c0,0.1,0,0.1-0.1,0.1
	C3.6,7.3,3.4,7.5,3.1,7.7c0,0-0.1,0-0.1,0.1L2.7,7.9l0,0C2.1,8.3,1.8,8.4,1.5,8.7C1.3,8.9,1.2,9.1,1.1,9.4C1,9.7,1,10,1,10.7l0,0
	l0,0.6l0,0c0,0.7,0,1,0.1,1.3c0.1,0.3,0.2,0.5,0.4,0.7c0.2,0.2,0.5,0.4,1.1,0.7l0,0L3,14.3l0,0c0.1,0,0.1,0,0.1,0.1
	c0.3,0.2,0.5,0.4,0.7,0.7c0,0,0,0.1,0.1,0.1h0c0,0.1,0.1,0.1,0.1,0.1c0.1,0.3,0.2,0.6,0.2,0.9c0,0,0,0.1,0,0.1l0,0.4l0,0
	c0,0.7,0,1,0.1,1.3c0.1,0.3,0.2,0.5,0.4,0.7c0.2,0.2,0.5,0.4,1.1,0.8l0.5,0.3c0.6,0.3,0.9,0.5,1.2,0.6c0.3,0.1,0.6,0.1,0.8,0
	c0.3-0.1,0.6-0.2,1.2-0.6l0,0l0.4-0.2c0.1,0,0.1-0.1,0.1-0.1c0.3-0.2,0.6-0.2,0.9-0.3c0,0,0.1,0,0.1,0c0.1,0,0.1,0,0.1,0
	c0.3,0,0.6,0.1,0.9,0.3c0,0,0.1,0,0.1,0.1l0.4,0.2l0,0c0.6,0.4,0.9,0.5,1.2,0.6c0.3,0.1,0.6,0.1,0.8,0c0.3-0.1,0.6-0.2,1.2-0.6
	l0.5-0.3c0.6-0.3,0.9-0.5,1.1-0.8c0.2-0.2,0.3-0.5,0.4-0.7c0.1-0.3,0.1-0.6,0.1-1.3l0-0.4l0,0c0-0.1,0-0.1,0-0.1
	c0-0.3,0.1-0.6,0.2-0.9c0,0,0-0.1,0.1-0.1l0,0c0-0.1,0-0.1,0.1-0.1c0.2-0.3,0.4-0.5,0.7-0.7c0,0,0.1,0,0.1-0.1l0,0l0.4-0.2
	c0.6-0.3,0.9-0.5,1.1-0.7c0.2-0.2,0.3-0.5,0.4-0.7C21,12.3,21,12,21,11.3l0-0.6c0-0.7,0-1-0.1-1.3c-0.1-0.3-0.2-0.5-0.4-0.7
	C20.2,8.4,19.9,8.3,19.3,7.9z"/>
<circle class="st0" cx="11" cy="11" r="4.5"/>
</svg>
